<?xml version="1.0" encoding="UTF-8"?>
<svg width="700pt" height="700pt" version="1.1" viewBox="0 0 700 700" xmlns="http://www.w3.org/2000/svg" xmlns:xlink="http://www.w3.org/1999/xlink">
  <g>
    <path d="m471.63 245.84c-0.0625-16.438-5.7344-32.359-16.074-45.137 3.5117-14.605 2.4141-29.941-3.1328-43.902-1.0938-2.6875-3.3359-4.7422-6.1055-5.6016-3.9219-1.3438-18.762-3.8633-49 15.734v0.003906c-13.008-3.4336-26.422-5.0547-39.871-4.8164-13.469-0.24219-26.906 1.3789-39.93 4.8164-31.023-20.047-47.152-16.801-50.398-15.848-2.7852 0.89453-5.0234 2.9922-6.1055 5.7109-5.5625 13.914-6.6992 29.207-3.2461 43.793-10.68 12.711-16.371 28.871-16.016 45.469 0 61.938 35.445 80.641 67.926 87.25-1.668 4.0781-2.8164 8.3477-3.4141 12.711-0.058594 0.46484-0.058594 0.9375 0 1.4023v17.133c-29.566 2.4648-35.895-14.84-36.512-16.801v0.003907c-0.14453-0.45703-0.3125-0.90625-0.50781-1.3477-5.7109-11.648-15.762-20.598-28-24.918-5.1328-1.7148-10.688 1.0547-12.402 6.1875-1.7148 5.1328 1.0547 10.688 6.1875 12.406 6.7812 2.4492 12.438 7.2852 15.906 13.605 3.9219 12.711 19.938 32.816 55.215 30.574v16.129c0 5.4141 4.3867 9.8008 9.8008 9.8008 5.4102 0 9.8008-4.3867 9.8008-9.8008v-52.246c0.74219-5.707 3.2266-11.043 7.1094-15.289 2.7812-2.6016 3.7891-6.582 2.5859-10.195-1.2031-3.6094-4.4023-6.1914-8.1836-6.6055-34.16-3.9766-65.742-15.23-65.742-70.391h-0.003907c-0.45703-13.461 4.7422-26.5 14.336-35.953 2.6016-2.7969 3.4609-6.793 2.2422-10.414-3.3008-9.5859-3.5156-19.965-0.61719-29.68 12.023 2.7148 23.316 8.0078 33.094 15.512 2.5469 1.6836 5.7227 2.1172 8.625 1.1758 12.445-3.7891 25.414-5.5469 38.418-5.207 12.98-0.33984 25.934 1.418 38.359 5.207 2.9023 0.94922 6.082 0.51562 8.625-1.1758 9.418-7.2188 20.199-12.457 31.695-15.402 2.8555 9.8242 2.6016 20.289-0.73047 29.961-1.1133 3.2852-0.38672 6.918 1.9062 9.5195 9.2695 9.8984 14.52 22.898 14.727 36.457 0 55.047-33.207 66.473-65.742 70.391-3.9883 0.44531-7.2969 3.2852-8.3359 7.1602-1.0391 3.875 0.40234 7.9883 3.6328 10.371 3.4727 2.6328 7.5039 10.023 7.5039 22.398v44.352c0 5.4141 4.3867 9.8008 9.7969 9.8008 5.4141 0 9.8008-4.3867 9.8008-9.8008v-44.352c0.10156-7.8008-1.3242-15.543-4.1992-22.793 26.32-5.5977 66.977-22.902 66.977-87.359z" />
    <use x="70" y="644" xlink:href="#v" />
    <use x="90.550781" y="644" xlink:href="#e" />
    <use x="104.359375" y="644" xlink:href="#a" />
    <use x="123.347656" y="644" xlink:href="#d" />
    <use x="142.242188" y="644" xlink:href="#c" />
    <use x="155.628906" y="644" xlink:href="#a" />
    <use x="174.617188" y="644" xlink:href="#m" />
    <use x="204.410156" y="644" xlink:href="#l" />
    <use x="224.453125" y="644" xlink:href="#k" />
    <use x="252.453125" y="644" xlink:href="#j" />
    <use x="275.433594" y="644" xlink:href="#b" />
    <use x="295.367188" y="644" xlink:href="#i" />
    <use x="304.964844" y="644" xlink:href="#g" />
    <use x="314.5625" y="644" xlink:href="#g" />
    <use x="324.160156" y="644" xlink:href="#d" />
    <use x="343.054688" y="644" xlink:href="#b" />
    <use x="362.988281" y="644" xlink:href="#h" />
    <use x="392.164062" y="644" xlink:href="#a" />
    <use x="420.902344" y="644" xlink:href="#u" />
    <use x="442.242187" y="644" xlink:href="#a" />
    <use x="461.234375" y="644" xlink:href="#d" />
    <use x="480.128906" y="644" xlink:href="#b" />
    <use x="500.0625" y="644" xlink:href="#g" />
    <use x="509.660156" y="644" xlink:href="#i" />
    <use x="519.257812" y="644" xlink:href="#a" />
    <use x="538.25" y="644" xlink:href="#b" />
    <use x="70" y="672" xlink:href="#t" />
    <use x="82.183594" y="672" xlink:href="#e" />
    <use x="95.992188" y="672" xlink:href="#f" />
    <use x="115.226562" y="672" xlink:href="#h" />
    <use x="154.152344" y="672" xlink:href="#c" />
    <use x="167.535156" y="672" xlink:href="#s" />
    <use x="187.46875" y="672" xlink:href="#a" />
    <use x="216.207031" y="672" xlink:href="#r" />
    <use x="239.640625" y="672" xlink:href="#f" />
    <use x="258.878906" y="672" xlink:href="#b" />
    <use x="278.8125" y="672" xlink:href="#q" />
    <use x="308.492188" y="672" xlink:href="#p" />
    <use x="329.015625" y="672" xlink:href="#e" />
    <use x="342.820312" y="672" xlink:href="#f" />
    <use x="362.058594" y="672" xlink:href="#o" />
    <use x="371.65625" y="672" xlink:href="#a" />
    <use x="390.648438" y="672" xlink:href="#n" />
    <use x="407.242188" y="672" xlink:href="#c" />
  </g>
</svg>
